<?xml version="1.0" standalone="no"?>
<!DOCTYPE svg PUBLIC "-//W3C//DTD SVG 20010904//EN"
 "http://www.w3.org/TR/2001/REC-SVG-20010904/DTD/svg10.dtd">
<svg version="1.0" xmlns="http://www.w3.org/2000/svg"
 width="990.000000pt" height="990.000000pt" viewBox="0 0 990.000000 990.000000"
 preserveAspectRatio="xMidYMid meet">
<metadata>
Created by potrace 1.11, written by Peter Selinger 2001-2013
</metadata>
<g transform="translate(0.000000,990.000000) scale(0.100000,-0.100000)"
fill="#000000" stroke="none">
<path d="M1160 9891 c-77 -25 -136 -77 -172 -149 l-23 -47 -3 -4720 c-2 -5209
-8 -4779 60 -4863 104 -129 306 -134 412 -10 20 22 43 64 53 92 16 48 17 292
18 4498 0 2447 3 4447 6 4445 3 -1 65 -38 138 -82 72 -44 145 -88 161 -97 63
-38 94 -56 262 -158 95 -58 182 -110 193 -116 11 -6 182 -109 380 -229 198
-120 378 -229 400 -242 64 -38 87 -53 584 -353 259 -157 486 -294 505 -305 67
-40 180 -107 511 -307 132 -80 371 -224 530 -320 160 -96 463 -280 675 -408
212 -128 399 -240 415 -250 17 -9 102 -61 190 -115 88 -54 174 -105 190 -115
17 -9 73 -43 125 -75 52 -32 109 -66 125 -75 17 -10 158 -95 315 -190 403
-245 515 -312 554 -335 19 -11 114 -68 210 -126 203 -122 198 -99 41 -201 -98
-63 -189 -123 -545 -356 -96 -63 -269 -176 -385 -251 -115 -74 -211 -139 -213
-143 -2 -4 -7 -8 -12 -8 -5 0 -55 -31 -112 -69 -57 -37 -170 -112 -253 -166
-330 -215 -452 -295 -613 -400 -329 -216 -1133 -741 -1199 -783 -38 -23 -142
-92 -233 -152 -91 -60 -208 -137 -260 -170 -520 -335 -831 -544 -869 -582 -71
-74 -89 -200 -41 -302 54 -115 200 -178 320 -138 56 19 60 21 740 468 118 77
253 165 300 196 47 30 153 99 235 153 146 95 477 311 720 470 66 43 183 119
260 170 77 50 199 130 270 177 187 121 375 244 945 617 278 181 561 366 630
411 69 45 216 141 327 213 111 73 334 218 494 322 161 105 309 206 329 225 61
57 84 112 85 200 0 89 -23 143 -87 199 -30 27 -688 433 -941 580 -15 9 -120
72 -233 141 -113 69 -218 132 -232 140 -15 9 -45 27 -67 41 -22 14 -47 28 -55
32 -8 4 -80 47 -160 96 -115 71 -458 278 -706 426 -18 11 -242 146 -496 300
-255 154 -523 316 -596 360 -73 44 -315 190 -538 325 -491 296 -452 273 -565
340 -51 30 -107 64 -125 75 -260 158 -582 351 -591 353 -7 2 -13 8 -13 13 0 5
-4 9 -8 9 -9 0 -30 12 -422 250 -129 78 -249 151 -267 161 -58 33 -617 371
-653 394 -19 12 -90 56 -158 96 -68 41 -135 81 -150 90 -417 250 -512 307
-536 317 -37 16 -143 24 -176 13z"/>
</g>
</svg>
