<svg xmlns="http://www.w3.org/2000/svg" viewBox="0 0 215.44 29.34"><defs><style>.cls-1{fill:#fff;}</style></defs><title>logo</title><g id="Camada_2" data-name="Camada 2"><g id="Camada_1-2" data-name="Camada 1"><path class="cls-1" d="M36.93,9.32v16H32.65v-15c0-3.6-2.23-6.12-5.51-6.12-3.82.07-6.55,3.38-6.55,7.56V25.3H16.31v-15c0-3.6-2.27-6.12-5.54-6.12-3.82.07-6.52,3.38-6.52,7.56V25.3H0V.11H4.25v4a9.64,9.64,0,0,1,8-4,7.9,7.9,0,0,1,7.6,5.26A9.45,9.45,0,0,1,28.62.11C33.44.11,36.93,3.85,36.93,9.32Z"/><path class="cls-1" d="M67.64,12.71c0,7.2-5.83,12.78-13.35,12.78S40.93,19.91,40.93,12.71,46.76,0,54.29,0,67.64,5.51,67.64,12.71Zm-22.39,0a9,9,0,0,0,9.07,9,8.93,8.93,0,1,0-9.07-9Z"/><path class="cls-1" d="M95.79,12.71c0,7.2-5.83,12.78-13.35,12.78S69.08,19.91,69.08,12.71,74.92,0,82.44,0,95.79,5.51,95.79,12.71Zm-22.39,0a9,9,0,0,0,9.07,9,8.93,8.93,0,1,0-9.07-9Z"/><path class="cls-1" d="M121.93,9.32v16h-4.28v-15a5.76,5.76,0,0,0-6-6.12,7.24,7.24,0,0,0-7.09,7.56V25.3h-4.25V.11h4.25v4.1a10.42,10.42,0,0,1,8.57-4.1C118.26.11,121.93,3.85,121.93,9.32Z"/><path class="cls-1" d="M215.44.54V20.2c0,5.33-3.92,9.14-9.36,9.14-3.78,0-7.77-1.69-9.58-4.1l.86-1.12c1.69,2.16,5.29,3.74,8.6,3.74,4.64,0,8-3.24,8-7.7V14.4A9.47,9.47,0,0,1,205.29,20c-5.18,0-8.89-3.85-8.89-9.21V.54h1.51V10.66a7.42,7.42,0,0,0,7.56,7.81,8.46,8.46,0,0,0,8.53-8V.54Z"/><g id="A"><path class="cls-1" d="M189.41,12.47,172.35,2.15v.24q0,11.19,0,22.38a1.6,1.6,0,0,1,0,.26.69.69,0,0,1-.72.61.7.7,0,0,1-.66-.68s0-.09,0-.14Q171,12.92,171,1a.75.75,0,0,1,.38-.75.71.71,0,0,1,.74.05l4,2.44,14.88,9a.72.72,0,0,1,.41.85.75.75,0,0,1-.35.44l-4.79,3.13L178,21.63a.73.73,0,0,1-.58.14.69.69,0,0,1-.55-.58.68.68,0,0,1,.32-.71l1.73-1.13,10.34-6.77Z"/></g><path class="cls-1" d="M147.55,8.82c0,5.4-3.49,8.5-9.68,8.5h-7.34v8.39H129V.54h8.86C144.05.54,147.55,3.57,147.55,8.82Zm-1.44,0c0-4.43-3-6.84-8.28-6.84h-7.31V15.84h7.31C143.08,15.84,146.11,13.36,146.11,8.86Z"/><path class="cls-1" d="M154.42.54V24.23h11.19v1.48H152.91V.54Z"/></g></g></svg>
