<svg xmlns="http://www.w3.org/2000/svg" viewBox="0 0 222.46 40.75"><defs><style>.cls-1,.cls-3{font-size:36px;}.cls-1,.cls-3,.cls-4{fill:#fff;}.cls-1{font-family:MontserratAlternates-Regular, Montserrat Alternates;}.cls-2{letter-spacing:-0.03em;}.cls-3{font-family:MontserratAlternates-ExtraLight, Montserrat Alternates;}</style></defs><title>logo_1</title><g id="Camada_2" data-name="Camada 2"><g id="Camada_1-2" data-name="Camada 1"><text class="cls-1" transform="translate(0 30.6)">M<tspan class="cls-2" x="43.02" y="0">O</tspan><tspan x="71.17" y="0">ON</tspan></text><text class="cls-3" transform="translate(196 31)">Y</text><path id="A" class="cls-4" d="M192.72,17.76,175.67,7.45v.24q0,11.19,0,22.38a1.6,1.6,0,0,1,0,.26.69.69,0,0,1-.72.61.7.7,0,0,1-.66-.68s0-.09,0-.14q0-11.89,0-23.78a.75.75,0,0,1,.38-.75.71.71,0,0,1,.74.05l4,2.44,14.88,9a.72.72,0,0,1,.41.85.75.75,0,0,1-.35.44l-4.79,3.13-8.29,5.42a.73.73,0,0,1-.58.14.69.69,0,0,1-.55-.58.68.68,0,0,1,.32-.71l1.73-1.13,10.34-6.77Z"/><text class="cls-3" transform="translate(128 31)">PL</text></g></g></svg>