<svg xmlns="http://www.w3.org/2000/svg">
<symbol id="logo" viewBox="0 0 44.24 10.41">
  <path d="M1.44,5.93v2.2H0V1.75H2.25q2.41,0,2.41,2A2,2,0,0,1,4,5.34a2.74,2.74,0,0,1-1.85.59Zm0-3.08v2H2q1.15,0,1.15-1T2,2.86Z"/><path d="M9.4,8.13H5.6V1.75H7V7H9.4Z"/><path d="M16.07,8.13H14.5L14,6.71H11.78l-.45,1.42H9.77l2.32-6.38h1.7ZM13.72,5.61,13,3.47a2.79,2.79,0,0,1-.11-.57h0a2.41,2.41,0,0,1-.11.56l-.69,2.16Z"/><path d="M21,1.75,18.91,5.86V8.13H17.47V5.89l-2-4.14h1.64l1,2.38s.07.22.15.52h0a2.32,2.32,0,0,1,.14-.5l1-2.4Z"/><path d="M27,.87A4.34,4.34,0,0,1,30.57,7l.75.44A5.21,5.21,0,0,0,27,0ZM22.66,7A4.34,4.34,0,0,1,26.18.87V0a5.21,5.21,0,0,0-4.27,7.42Zm7.47.75a4.32,4.32,0,0,1-7,0l-.76.44a5.19,5.19,0,0,0,8.55,0Zm-3.52-6A3.48,3.48,0,1,0,30.09,5.2,3.47,3.47,0,0,0,26.61,1.72ZM25.75,6.5V3.89l2.6,1.37Z"/><path d="M37.8,2.92H36V8.13H34.54V2.92H32.73V1.75H37.8Z"/><path d="M44.24,1.75,42,8.13H40.41L38.24,1.75h1.55l1.33,4.44a3.16,3.16,0,0,1,.13.64h0a3.59,3.59,0,0,1,.14-.65l1.32-4.42Z"/>
</symbol>
<symbol id="icon-link" viewBox="0 0 45 45">
  <path d="M11.6,16.35a12,12,0,0,1,18.54,1.84L25.93,22.4a6.35,6.35,0,0,0-7.19-3.65,6.24,6.24,0,0,0-3.06,1.68L7.61,28.5a6.28,6.28,0,0,0,8.89,8.89L19,34.9A16,16,0,0,0,26.07,36l-5.49,5.49A12.06,12.06,0,0,1,3.53,24.42ZM24.42,3.53,18.93,9A16,16,0,0,1,26,10.1L28.5,7.61a6.28,6.28,0,0,1,8.89,8.89l-8.07,8.07a6.3,6.3,0,0,1-8.89,0,6.69,6.69,0,0,1-1.36-2l-4.21,4.21a11.32,11.32,0,0,0,1.49,1.84,12,12,0,0,0,17.05,0l8.07-8.07a12.06,12.06,0,1,0-17-17.05Z"/>
</symbol>
</svg>
