<svg xmlns="http://www.w3.org/2000/svg" viewBox="0 0 44.24 10.41"><defs><style>.cls-1{fill:#fff;}</style></defs><title>playtv</title><g id="Camada_2" data-name="Camada 2"><g id="Camada_1-2" data-name="Camada 1"><path class="cls-1" d="M1.44,5.93v2.2H0V1.75H2.25q2.41,0,2.41,2A2,2,0,0,1,4,5.34a2.74,2.74,0,0,1-1.85.59Zm0-3.08v2H2q1.15,0,1.15-1T2,2.86Z"/><path class="cls-1" d="M9.4,8.13H5.6V1.75H7V7H9.4Z"/><path class="cls-1" d="M16.07,8.13H14.5L14,6.71H11.78l-.45,1.42H9.77l2.32-6.38h1.7ZM13.72,5.61,13,3.47a2.79,2.79,0,0,1-.11-.57h0a2.41,2.41,0,0,1-.11.56l-.69,2.16Z"/><path class="cls-1" d="M21,1.75,18.91,5.86V8.13H17.47V5.89l-2-4.14h1.64l1,2.38s.07.22.15.52h0a2.32,2.32,0,0,1,.14-.5l1-2.4Z"/><path class="cls-1" d="M27,.87A4.34,4.34,0,0,1,30.57,7l.75.44A5.21,5.21,0,0,0,27,0ZM22.66,7A4.34,4.34,0,0,1,26.18.87V0a5.21,5.21,0,0,0-4.27,7.42Zm7.47.75a4.32,4.32,0,0,1-7,0l-.76.44a5.19,5.19,0,0,0,8.55,0Zm-3.52-6A3.48,3.48,0,1,0,30.09,5.2,3.47,3.47,0,0,0,26.61,1.72ZM25.75,6.5V3.89l2.6,1.37Z"/><path class="cls-1" d="M37.8,2.92H36V8.13H34.54V2.92H32.73V1.75H37.8Z"/><path class="cls-1" d="M44.24,1.75,42,8.13H40.41L38.24,1.75h1.55l1.33,4.44a3.16,3.16,0,0,1,.13.64h0a3.59,3.59,0,0,1,.14-.65l1.32-4.42Z"/></g></g></svg>