<?xml version="1.0" standalone="no"?>
<!DOCTYPE svg PUBLIC "-//W3C//DTD SVG 20010904//EN"
 "http://www.w3.org/TR/2001/REC-SVG-20010904/DTD/svg10.dtd">
<svg version="1.0" xmlns="http://www.w3.org/2000/svg"
 width="16.000000pt" height="16.000000pt" viewBox="0 0 16.000000 16.000000"
 preserveAspectRatio="xMidYMid meet">
<metadata>
Created by potrace 1.11, written by Peter Selinger 2001-2013
</metadata>
<g transform="translate(0.000000,16.000000) scale(0.006154,-0.006154)"
fill="#000000" stroke="none">
<path d="M1350 1827 c0 -2 -25 -75 -55 -162 -31 -88 -66 -191 -79 -230 -13
-38 -61 -176 -106 -305 -45 -129 -92 -265 -105 -302 -13 -37 -21 -69 -17 -71
4 -2 43 -3 86 -3 59 1 81 5 87 16 5 8 24 60 43 115 19 55 55 159 79 230 79
227 239 690 244 703 4 9 -17 12 -86 12 -50 0 -91 -1 -91 -3z"/>
<path d="M720 1525 c-85 -36 -164 -69 -175 -74 -11 -5 -72 -31 -135 -57 -63
-26 -117 -49 -119 -50 -9 -8 -6 -137 4 -150 9 -11 586 -257 591 -251 4 3 6 70
5 127 l-1 55 -206 69 c-113 37 -203 70 -201 73 3 2 94 35 203 72 l199 68 5 44
c6 53 1 139 -8 139 -4 -1 -77 -30 -162 -65z"/>
<path d="M1652 1498 l3 -92 213 -71 213 -70 -213 -71 -213 -70 -3 -92 c-1 -51
0 -92 3 -92 2 0 42 15 87 34 46 18 90 36 98 39 8 3 107 44 220 90 l205 83 0
72 c1 40 -2 76 -5 81 -3 4 -117 53 -255 109 -137 55 -272 110 -298 121 -27 12
-51 21 -53 21 -3 0 -3 -41 -2 -92z"/>
</g>
</svg>
