<?xml version="1.0" standalone="no"?>
<!DOCTYPE svg PUBLIC "-//W3C//DTD SVG 20010904//EN"
 "http://www.w3.org/TR/2001/REC-SVG-20010904/DTD/svg10.dtd">
<svg version="1.0" xmlns="http://www.w3.org/2000/svg"
 width="800.000000pt" height="800.000000pt" viewBox="0 0 800.000000 800.000000"
 preserveAspectRatio="xMidYMid meet">
<metadata>
Created by potrace 1.11, written by Peter Selinger 2001-2013
</metadata>
<g transform="translate(0.000000,800.000000) scale(0.100000,-0.100000)"
fill="#000000" stroke="none">
<path d="M3500 7934 c-734 -97 -1400 -383 -1985 -852 -147 -118 -451 -419
-567 -562 -497 -612 -793 -1322 -880 -2105 -17 -159 -17 -662 0 -820 32 -286
98 -581 189 -850 60 -178 162 -425 175 -425 8 0 556 315 566 325 2 2 -23 73
-56 157 -160 409 -226 759 -226 1198 0 391 48 695 168 1055 230 688 693 1290
1305 1699 395 265 882 451 1335 512 61 9 121 17 134 20 l22 4 0 330 0 330 -37
-1 c-21 -1 -85 -7 -143 -15z"/>
<path d="M4330 7621 c0 -360 -3 -341 60 -341 45 0 255 -38 390 -70 745 -180
1412 -624 1876 -1252 584 -789 784 -1814 539 -2761 -42 -165 -73 -258 -137
-420 -28 -70 -49 -129 -46 -132 10 -11 558 -325 566 -325 5 0 16 17 25 38 202
485 291 810 339 1237 17 158 17 661 0 820 -87 783 -383 1493 -880 2105 -116
143 -420 444 -567 562 -514 412 -1099 687 -1718 807 -146 28 -372 61 -423 61
l-24 0 0 -329z"/>
<path d="M3794 6640 c-344 -31 -640 -114 -949 -265 -427 -209 -765 -505 -1034
-906 -293 -435 -441 -928 -441 -1464 0 -600 181 -1136 547 -1618 99 -130 349
-380 478 -478 377 -286 768 -452 1245 -526 163 -25 567 -25 730 0 477 74 868
240 1245 526 129 98 379 348 478 478 299 394 476 829 532 1310 19 163 19 452
0 614 -91 780 -522 1476 -1185 1912 -221 145 -556 289 -818 351 -250 60 -597
87 -828 66z m679 -2240 l847 -445 -68 -31 c-37 -17 -474 -226 -972 -464 -498
-237 -911 -434 -917 -437 -10 -4 -13 196 -13 981 l0 985 138 -72 c76 -40 519
-272 985 -517z"/>
<path d="M1052 1916 c-155 -89 -284 -165 -288 -168 -8 -9 40 -77 156 -222 615
-767 1488 -1280 2440 -1435 247 -40 330 -46 645 -46 315 0 398 6 645 46 942
153 1823 667 2429 1419 99 123 175 229 168 236 -3 3 -133 80 -289 170 -282
163 -283 164 -298 142 -47 -69 -185 -232 -278 -329 -542 -567 -1232 -912
-2007 -1005 -189 -23 -551 -23 -740 0 -898 108 -1685 557 -2247 1283 l-55 71
-281 -162z"/>
</g>
</svg>
