<svg xmlns="http://www.w3.org/2000/svg" viewBox="0 0 45 45"><defs><style>.cls-1{fill:#336dff;}</style></defs><title>link</title><g id="Camada_2" data-name="Camada 2"><g id="Camada_1-2" data-name="Camada 1"><path class="cls-1" d="M11.6,16.35a12,12,0,0,1,18.54,1.84L25.93,22.4a6.35,6.35,0,0,0-7.19-3.65,6.24,6.24,0,0,0-3.06,1.68L7.61,28.5a6.28,6.28,0,0,0,8.89,8.89L19,34.9A16,16,0,0,0,26.07,36l-5.49,5.49A12.06,12.06,0,0,1,3.53,24.42ZM24.42,3.53,18.93,9A16,16,0,0,1,26,10.1L28.5,7.61a6.28,6.28,0,0,1,8.89,8.89l-8.07,8.07a6.3,6.3,0,0,1-8.89,0,6.69,6.69,0,0,1-1.36-2l-4.21,4.21a11.32,11.32,0,0,0,1.49,1.84,12,12,0,0,0,17.05,0l8.07-8.07a12.06,12.06,0,1,0-17-17.05Z"/></g></g></svg>